ISO-10303-21;
HEADER;
/* Generated by software containing ST-Developer
 * from STEP Tools, Inc. (www.steptools.com) 
 */
/* OPTION: using custom renumber hook */

FILE_DESCRIPTION(
/* description */ ('STEP AP242',
'CAx-IF Rec.Pracs.---Representation and Presentation of Product Manufa
cturing Information (PMI)---4.0---2014-10-13',
'CAx-IF Rec.Pracs.---3D Tessellated Geometry---0.4---2014-09-14','2;1'),

/* implementation_level */ '2;1');

FILE_NAME(
/* name */ '68b5056fe37764f5e925e833',
/* time_stamp */ '2025-09-01T02:31:11Z',
/* author */ (''),
/* organization */ (''),
/* preprocessor_version */ 'ST-DEVELOPER v20',
/* originating_system */ 'ONSHAPE BY PTC INC, 1.203',
/* authorisation */ '  ');

FILE_SCHEMA (('AP242_MANAGED_MODEL_BASED_3D_ENGINEERING_MIM_LF { 1 0 10303 442 1 1 4 }'));
ENDSEC;

DATA;
#10=SHAPE_REPRESENTATION_RELATIONSHIP('','',#770,#11);
#11=ADVANCED_BREP_SHAPE_REPRESENTATION('',(#768),#1232);
#12=B_SPLINE_CURVE_WITH_KNOTS('',3,(#1062,#1063,#1064,#1065),
 .UNSPECIFIED.,.F.,.F.,(4,4),(0.,1.5),.UNSPECIFIED.);
#13=B_SPLINE_CURVE_WITH_KNOTS('',3,(#1187,#1188,#1189,#1190),
 .UNSPECIFIED.,.F.,.F.,(4,4),(-0.5,1.),.UNSPECIFIED.);
#14=B_SPLINE_CURVE_WITH_KNOTS('',3,(#1219,#1220,#1221,#1222),
 .UNSPECIFIED.,.F.,.F.,(4,4),(-0.5,1.),.UNSPECIFIED.);
#15=B_SPLINE_CURVE_WITH_KNOTS('',3,(#1226,#1227,#1228,#1229),
 .UNSPECIFIED.,.F.,.F.,(4,4),(-4.10782519111308E-15,1.5),.UNSPECIFIED.);
#16=PLANE('',#778);
#17=PLANE('',#779);
#18=PLANE('',#780);
#19=PLANE('',#784);
#20=PLANE('',#796);
#21=PLANE('',#808);
#22=PLANE('',#810);
#23=PLANE('',#812);
#24=PLANE('',#814);
#25=PLANE('',#816);
#26=PLANE('',#817);
#27=PLANE('',#818);
#28=PLANE('',#820);
#29=PLANE('',#822);
#30=PLANE('',#824);
#31=PLANE('',#826);
#32=PLANE('',#828);
#33=PLANE('',#830);
#34=PLANE('',#831);
#35=PLANE('',#832);
#36=OVER_RIDING_STYLED_ITEM('',(#677),#641,#675);
#37=OVER_RIDING_STYLED_ITEM('',(#678),#644,#675);
#38=OVER_RIDING_STYLED_ITEM('',(#679),#645,#675);
#39=OVER_RIDING_STYLED_ITEM('',(#680),#648,#675);
#40=OVER_RIDING_STYLED_ITEM('',(#681),#649,#675);
#41=OVER_RIDING_STYLED_ITEM('',(#682),#650,#675);
#42=OVER_RIDING_STYLED_ITEM('',(#683),#651,#675);
#43=OVER_RIDING_STYLED_ITEM('',(#684),#652,#675);
#44=OVER_RIDING_STYLED_ITEM('',(#685),#653,#675);
#45=OVER_RIDING_STYLED_ITEM('',(#686),#654,#675);
#46=OVER_RIDING_STYLED_ITEM('',(#687),#655,#675);
#47=OVER_RIDING_STYLED_ITEM('',(#688),#656,#675);
#48=OVER_RIDING_STYLED_ITEM('',(#689),#672,#675);
#49=OVER_RIDING_STYLED_ITEM('',(#690),#673,#675);
#50=LINE('',#1029,#114);
#51=LINE('',#1033,#115);
#52=LINE('',#1038,#116);
#53=LINE('',#1042,#117);
#54=LINE('',#1044,#118);
#55=LINE('',#1046,#119);
#56=LINE('',#1048,#120);
#57=LINE('',#1050,#121);
#58=LINE('',#1052,#122);
#59=LINE('',#1054,#123);
#60=LINE('',#1056,#124);
#61=LINE('',#1057,#125);
#62=LINE('',#1069,#126);
#63=LINE('',#1071,#127);
#64=LINE('',#1072,#128);
#65=LINE('',#1076,#129);
#66=LINE('',#1080,#130);
#67=LINE('',#1084,#131);
#68=LINE('',#1088,#132);
#69=LINE('',#1092,#133);
#70=LINE('',#1096,#134);
#71=LINE('',#1098,#135);
#72=LINE('',#1100,#136);
#73=LINE('',#1104,#137);
#74=LINE('',#1108,#138);
#75=LINE('',#1112,#139);
#76=LINE('',#1116,#140);
#77=LINE('',#1120,#141);
#78=LINE('',#1122,#142);
#79=LINE('',#1127,#143);
#80=LINE('',#1129,#144);
#81=LINE('',#1131,#145);
#82=LINE('',#1135,#146);
#83=LINE('',#1139,#147);
#84=LINE('',#1143,#148);
#85=LINE('',#1147,#149);
#86=LINE('',#1151,#150);
#87=LINE('',#1155,#151);
#88=LINE('',#1156,#152);
#89=LINE('',#1157,#153);
#90=LINE('',#1161,#154);
#91=LINE('',#1165,#155);
#92=LINE('',#1169,#156);
#93=LINE('',#1173,#157);
#94=LINE('',#1175,#158);
#95=LINE('',#1177,#159);
#96=LINE('',#1179,#160);
#97=LINE('',#1181,#161);
#98=LINE('',#1183,#162);
#99=LINE('',#1185,#163);
#100=LINE('',#1192,#164);
#101=LINE('',#1193,#165);
#102=LINE('',#1195,#166);
#103=LINE('',#1197,#167);
#104=LINE('',#1199,#168);
#105=LINE('',#1201,#169);
#106=LINE('',#1203,#170);
#107=LINE('',#1205,#171);
#108=LINE('',#1207,#172);
#109=LINE('',#1209,#173);
#110=LINE('',#1211,#174);
#111=LINE('',#1213,#175);
#112=LINE('',#1215,#176);
#113=LINE('',#1217,#177);
#114=VECTOR('',#840,1.);
#115=VECTOR('',#843,1.);
#116=VECTOR('',#848,1.);
#117=VECTOR('',#851,1.);
#118=VECTOR('',#854,1.);
#119=VECTOR('',#855,1.);
#120=VECTOR('',#856,1.);
#121=VECTOR('',#859,1.);
#122=VECTOR('',#860,1.);
#123=VECTOR('',#861,1.);
#124=VECTOR('',#864,1.);
#125=VECTOR('',#865,1.);
#126=VECTOR('',#872,1.);
#127=VECTOR('',#875,1.);
#128=VECTOR('',#876,1.);
#129=VECTOR('',#879,1.);
#130=VECTOR('',#882,1.);
#131=VECTOR('',#885,1.);
#132=VECTOR('',#888,1.);
#133=VECTOR('',#891,1.);
#134=VECTOR('',#894,1.);
#135=VECTOR('',#895,1.);
#136=VECTOR('',#896,1.);
#137=VECTOR('',#899,1.);
#138=VECTOR('',#902,1.);
#139=VECTOR('',#905,1.);
#140=VECTOR('',#908,1.);
#141=VECTOR('',#911,1.);
#142=VECTOR('',#914,1.);
#143=VECTOR('',#917,1.);
#144=VECTOR('',#918,1.);
#145=VECTOR('',#919,1.);
#146=VECTOR('',#922,1.);
#147=VECTOR('',#925,1.);
#148=VECTOR('',#928,1.);
#149=VECTOR('',#931,1.);
#150=VECTOR('',#934,1.);
#151=VECTOR('',#937,1.);
#152=VECTOR('',#938,1.);
#153=VECTOR('',#939,1.);
#154=VECTOR('',#942,1.);
#155=VECTOR('',#945,1.);
#156=VECTOR('',#948,1.);
#157=VECTOR('',#953,1.);
#158=VECTOR('',#956,1.);
#159=VECTOR('',#959,1.);
#160=VECTOR('',#962,1.);
#161=VECTOR('',#965,1.);
#162=VECTOR('',#968,1.);
#163=VECTOR('',#971,1.);
#164=VECTOR('',#976,1.);
#165=VECTOR('',#977,1.);
#166=VECTOR('',#980,1.);
#167=VECTOR('',#983,1.);
#168=VECTOR('',#986,1.);
#169=VECTOR('',#989,1.);
#170=VECTOR('',#992,1.);
#171=VECTOR('',#995,1.);
#172=VECTOR('',#998,1.);
#173=VECTOR('',#1001,1.);
#174=VECTOR('',#1004,1.);
#175=VECTOR('',#1007,1.);
#176=VECTOR('',#1010,1.);
#177=VECTOR('',#1013,1.);
#178=ORIENTED_EDGE('',*,*,#370,.F.);
#179=ORIENTED_EDGE('',*,*,#371,.F.);
#180=ORIENTED_EDGE('',*,*,#372,.T.);
#181=ORIENTED_EDGE('',*,*,#373,.T.);
#182=ORIENTED_EDGE('',*,*,#374,.F.);
#183=ORIENTED_EDGE('',*,*,#375,.T.);
#184=ORIENTED_EDGE('',*,*,#376,.T.);
#185=ORIENTED_EDGE('',*,*,#377,.F.);
#186=ORIENTED_EDGE('',*,*,#378,.F.);
#187=ORIENTED_EDGE('',*,*,#371,.T.);
#188=ORIENTED_EDGE('',*,*,#379,.T.);
#189=ORIENTED_EDGE('',*,*,#380,.T.);
#190=ORIENTED_EDGE('',*,*,#381,.T.);
#191=ORIENTED_EDGE('',*,*,#380,.F.);
#192=ORIENTED_EDGE('',*,*,#382,.F.);
#193=ORIENTED_EDGE('',*,*,#383,.T.);
#194=ORIENTED_EDGE('',*,*,#384,.T.);
#195=ORIENTED_EDGE('',*,*,#383,.F.);
#196=ORIENTED_EDGE('',*,*,#385,.F.);
#197=ORIENTED_EDGE('',*,*,#375,.F.);
#198=ORIENTED_EDGE('',*,*,#386,.F.);
#199=ORIENTED_EDGE('',*,*,#387,.F.);
#200=ORIENTED_EDGE('',*,*,#388,.T.);
#201=ORIENTED_EDGE('',*,*,#389,.T.);
#202=ORIENTED_EDGE('',*,*,#388,.F.);
#203=ORIENTED_EDGE('',*,*,#390,.F.);
#204=ORIENTED_EDGE('',*,*,#376,.F.);
#205=ORIENTED_EDGE('',*,*,#385,.T.);
#206=ORIENTED_EDGE('',*,*,#382,.T.);
#207=ORIENTED_EDGE('',*,*,#379,.F.);
#208=ORIENTED_EDGE('',*,*,#370,.T.);
#209=ORIENTED_EDGE('',*,*,#391,.T.);
#210=ORIENTED_EDGE('',*,*,#392,.T.);
#211=ORIENTED_EDGE('',*,*,#393,.F.);
#212=ORIENTED_EDGE('',*,*,#394,.F.);
#213=ORIENTED_EDGE('',*,*,#395,.F.);
#214=ORIENTED_EDGE('',*,*,#396,.T.);
#215=ORIENTED_EDGE('',*,*,#397,.F.);
#216=ORIENTED_EDGE('',*,*,#398,.T.);
#217=ORIENTED_EDGE('',*,*,#399,.T.);
#218=ORIENTED_EDGE('',*,*,#400,.F.);
#219=ORIENTED_EDGE('',*,*,#401,.F.);
#220=ORIENTED_EDGE('',*,*,#402,.F.);
#221=ORIENTED_EDGE('',*,*,#403,.T.);
#222=ORIENTED_EDGE('',*,*,#404,.F.);
#223=ORIENTED_EDGE('',*,*,#405,.F.);
#224=ORIENTED_EDGE('',*,*,#406,.T.);
#225=ORIENTED_EDGE('',*,*,#407,.F.);
#226=ORIENTED_EDGE('',*,*,#408,.T.);
#227=ORIENTED_EDGE('',*,*,#409,.F.);
#228=ORIENTED_EDGE('',*,*,#410,.F.);
#229=ORIENTED_EDGE('',*,*,#411,.F.);
#230=ORIENTED_EDGE('',*,*,#412,.F.);
#231=ORIENTED_EDGE('',*,*,#413,.T.);
#232=ORIENTED_EDGE('',*,*,#414,.T.);
#233=ORIENTED_EDGE('',*,*,#415,.T.);
#234=ORIENTED_EDGE('',*,*,#416,.T.);
#235=ORIENTED_EDGE('',*,*,#417,.F.);
#236=ORIENTED_EDGE('',*,*,#418,.T.);
#237=ORIENTED_EDGE('',*,*,#419,.T.);
#238=ORIENTED_EDGE('',*,*,#420,.F.);
#239=ORIENTED_EDGE('',*,*,#421,.T.);
#240=ORIENTED_EDGE('',*,*,#422,.T.);
#241=ORIENTED_EDGE('',*,*,#423,.T.);
#242=ORIENTED_EDGE('',*,*,#424,.F.);
#243=ORIENTED_EDGE('',*,*,#425,.F.);
#244=ORIENTED_EDGE('',*,*,#426,.T.);
#245=ORIENTED_EDGE('',*,*,#427,.F.);
#246=ORIENTED_EDGE('',*,*,#428,.T.);
#247=ORIENTED_EDGE('',*,*,#429,.T.);
#248=ORIENTED_EDGE('',*,*,#430,.T.);
#249=ORIENTED_EDGE('',*,*,#431,.F.);
#250=ORIENTED_EDGE('',*,*,#432,.F.);
#251=ORIENTED_EDGE('',*,*,#372,.F.);
#252=ORIENTED_EDGE('',*,*,#378,.T.);
#253=ORIENTED_EDGE('',*,*,#381,.F.);
#254=ORIENTED_EDGE('',*,*,#384,.F.);
#255=ORIENTED_EDGE('',*,*,#374,.T.);
#256=ORIENTED_EDGE('',*,*,#433,.T.);
#257=ORIENTED_EDGE('',*,*,#386,.T.);
#258=ORIENTED_EDGE('',*,*,#434,.F.);
#259=ORIENTED_EDGE('',*,*,#435,.F.);
#260=ORIENTED_EDGE('',*,*,#436,.F.);
#261=ORIENTED_EDGE('',*,*,#437,.T.);
#262=ORIENTED_EDGE('',*,*,#438,.T.);
#263=ORIENTED_EDGE('',*,*,#439,.T.);
#264=ORIENTED_EDGE('',*,*,#440,.T.);
#265=ORIENTED_EDGE('',*,*,#441,.F.);
#266=ORIENTED_EDGE('',*,*,#434,.T.);
#267=ORIENTED_EDGE('',*,*,#389,.F.);
#268=ORIENTED_EDGE('',*,*,#415,.F.);
#269=ORIENTED_EDGE('',*,*,#442,.T.);
#270=ORIENTED_EDGE('',*,*,#435,.T.);
#271=ORIENTED_EDGE('',*,*,#442,.F.);
#272=ORIENTED_EDGE('',*,*,#414,.F.);
#273=ORIENTED_EDGE('',*,*,#443,.T.);
#274=ORIENTED_EDGE('',*,*,#436,.T.);
#275=ORIENTED_EDGE('',*,*,#443,.F.);
#276=ORIENTED_EDGE('',*,*,#413,.F.);
#277=ORIENTED_EDGE('',*,*,#444,.T.);
#278=ORIENTED_EDGE('',*,*,#437,.F.);
#279=ORIENTED_EDGE('',*,*,#444,.F.);
#280=ORIENTED_EDGE('',*,*,#412,.T.);
#281=ORIENTED_EDGE('',*,*,#445,.T.);
#282=ORIENTED_EDGE('',*,*,#438,.F.);
#283=ORIENTED_EDGE('',*,*,#445,.F.);
#284=ORIENTED_EDGE('',*,*,#411,.T.);
#285=ORIENTED_EDGE('',*,*,#446,.T.);
#286=ORIENTED_EDGE('',*,*,#439,.F.);
#287=ORIENTED_EDGE('',*,*,#446,.F.);
#288=ORIENTED_EDGE('',*,*,#410,.T.);
#289=ORIENTED_EDGE('',*,*,#447,.T.);
#290=ORIENTED_EDGE('',*,*,#440,.F.);
#291=ORIENTED_EDGE('',*,*,#447,.F.);
#292=ORIENTED_EDGE('',*,*,#409,.T.);
#293=ORIENTED_EDGE('',*,*,#448,.T.);
#294=ORIENTED_EDGE('',*,*,#441,.T.);
#295=ORIENTED_EDGE('',*,*,#448,.F.);
#296=ORIENTED_EDGE('',*,*,#408,.F.);
#297=ORIENTED_EDGE('',*,*,#449,.T.);
#298=ORIENTED_EDGE('',*,*,#418,.F.);
#299=ORIENTED_EDGE('',*,*,#450,.T.);
#300=ORIENTED_EDGE('',*,*,#405,.T.);
#301=ORIENTED_EDGE('',*,*,#451,.T.);
#302=ORIENTED_EDGE('',*,*,#419,.F.);
#303=ORIENTED_EDGE('',*,*,#451,.F.);
#304=ORIENTED_EDGE('',*,*,#404,.T.);
#305=ORIENTED_EDGE('',*,*,#452,.T.);
#306=ORIENTED_EDGE('',*,*,#420,.T.);
#307=ORIENTED_EDGE('',*,*,#452,.F.);
#308=ORIENTED_EDGE('',*,*,#403,.F.);
#309=ORIENTED_EDGE('',*,*,#453,.F.);
#310=ORIENTED_EDGE('',*,*,#421,.F.);
#311=ORIENTED_EDGE('',*,*,#453,.T.);
#312=ORIENTED_EDGE('',*,*,#402,.T.);
#313=ORIENTED_EDGE('',*,*,#454,.F.);
#314=ORIENTED_EDGE('',*,*,#454,.T.);
#315=ORIENTED_EDGE('',*,*,#401,.T.);
#316=ORIENTED_EDGE('',*,*,#455,.T.);
#317=ORIENTED_EDGE('',*,*,#422,.F.);
#318=ORIENTED_EDGE('',*,*,#423,.F.);
#319=ORIENTED_EDGE('',*,*,#455,.F.);
#320=ORIENTED_EDGE('',*,*,#400,.T.);
#321=ORIENTED_EDGE('',*,*,#456,.T.);
#322=ORIENTED_EDGE('',*,*,#424,.T.);
#323=ORIENTED_EDGE('',*,*,#456,.F.);
#324=ORIENTED_EDGE('',*,*,#399,.F.);
#325=ORIENTED_EDGE('',*,*,#457,.T.);
#326=ORIENTED_EDGE('',*,*,#425,.T.);
#327=ORIENTED_EDGE('',*,*,#457,.F.);
#328=ORIENTED_EDGE('',*,*,#398,.F.);
#329=ORIENTED_EDGE('',*,*,#458,.T.);
#330=ORIENTED_EDGE('',*,*,#426,.F.);
#331=ORIENTED_EDGE('',*,*,#458,.F.);
#332=ORIENTED_EDGE('',*,*,#397,.T.);
#333=ORIENTED_EDGE('',*,*,#459,.T.);
#334=ORIENTED_EDGE('',*,*,#427,.T.);
#335=ORIENTED_EDGE('',*,*,#459,.F.);
#336=ORIENTED_EDGE('',*,*,#396,.F.);
#337=ORIENTED_EDGE('',*,*,#460,.T.);
#338=ORIENTED_EDGE('',*,*,#428,.F.);
#339=ORIENTED_EDGE('',*,*,#460,.F.);
#340=ORIENTED_EDGE('',*,*,#395,.T.);
#341=ORIENTED_EDGE('',*,*,#461,.T.);
#342=ORIENTED_EDGE('',*,*,#429,.F.);
#343=ORIENTED_EDGE('',*,*,#461,.F.);
#344=ORIENTED_EDGE('',*,*,#394,.T.);
#345=ORIENTED_EDGE('',*,*,#462,.T.);
#346=ORIENTED_EDGE('',*,*,#430,.F.);
#347=ORIENTED_EDGE('',*,*,#462,.F.);
#348=ORIENTED_EDGE('',*,*,#393,.T.);
#349=ORIENTED_EDGE('',*,*,#463,.T.);
#350=ORIENTED_EDGE('',*,*,#431,.T.);
#351=ORIENTED_EDGE('',*,*,#463,.F.);
#352=ORIENTED_EDGE('',*,*,#392,.F.);
#353=ORIENTED_EDGE('',*,*,#464,.T.);
#354=ORIENTED_EDGE('',*,*,#432,.T.);
#355=ORIENTED_EDGE('',*,*,#464,.F.);
#356=ORIENTED_EDGE('',*,*,#391,.F.);
#357=ORIENTED_EDGE('',*,*,#373,.F.);
#358=ORIENTED_EDGE('',*,*,#390,.T.);
#359=ORIENTED_EDGE('',*,*,#387,.T.);
#360=ORIENTED_EDGE('',*,*,#433,.F.);
#361=ORIENTED_EDGE('',*,*,#377,.T.);
#362=ORIENTED_EDGE('',*,*,#465,.F.);
#363=ORIENTED_EDGE('',*,*,#416,.F.);
#364=ORIENTED_EDGE('',*,*,#449,.F.);
#365=ORIENTED_EDGE('',*,*,#407,.T.);
#366=ORIENTED_EDGE('',*,*,#417,.T.);
#367=ORIENTED_EDGE('',*,*,#465,.T.);
#368=ORIENTED_EDGE('',*,*,#406,.F.);
#369=ORIENTED_EDGE('',*,*,#450,.F.);
#370=EDGE_CURVE('',#466,#467,#530,.T.);
#371=EDGE_CURVE('',#468,#466,#50,.T.);
#372=EDGE_CURVE('',#468,#469,#531,.T.);
#373=EDGE_CURVE('',#469,#467,#51,.T.);
#374=EDGE_CURVE('',#470,#471,#532,.T.);
#375=EDGE_CURVE('',#470,#472,#52,.T.);
#376=EDGE_CURVE('',#472,#473,#533,.T.);
#377=EDGE_CURVE('',#471,#473,#53,.T.);
#378=EDGE_CURVE('',#468,#474,#54,.T.);
#379=EDGE_CURVE('',#466,#475,#55,.T.);
#380=EDGE_CURVE('',#475,#474,#56,.T.);
#381=EDGE_CURVE('',#476,#474,#57,.T.);
#382=EDGE_CURVE('',#477,#475,#58,.T.);
#383=EDGE_CURVE('',#477,#476,#59,.T.);
#384=EDGE_CURVE('',#470,#476,#60,.T.);
#385=EDGE_CURVE('',#472,#477,#61,.T.);
#386=EDGE_CURVE('',#478,#479,#534,.T.);
#387=EDGE_CURVE('',#480,#478,#12,.T.);
#388=EDGE_CURVE('',#480,#481,#535,.T.);
#389=EDGE_CURVE('',#481,#479,#62,.T.);
#390=EDGE_CURVE('',#473,#480,#63,.T.);
#391=EDGE_CURVE('',#467,#482,#64,.T.);
#392=EDGE_CURVE('',#482,#483,#536,.T.);
#393=EDGE_CURVE('',#484,#483,#65,.T.);
#394=EDGE_CURVE('',#485,#484,#537,.T.);
#395=EDGE_CURVE('',#486,#485,#66,.T.);
#396=EDGE_CURVE('',#486,#487,#538,.T.);
#397=EDGE_CURVE('',#488,#487,#67,.T.);
#398=EDGE_CURVE('',#488,#489,#539,.T.);
#399=EDGE_CURVE('',#489,#490,#68,.T.);
#400=EDGE_CURVE('',#491,#490,#540,.T.);
#401=EDGE_CURVE('',#492,#491,#69,.T.);
#402=EDGE_CURVE('',#493,#492,#541,.T.);
#403=EDGE_CURVE('',#493,#494,#70,.T.);
#404=EDGE_CURVE('',#495,#494,#71,.T.);
#405=EDGE_CURVE('',#496,#495,#72,.T.);
#406=EDGE_CURVE('',#496,#497,#542,.T.);
#407=EDGE_CURVE('',#498,#497,#73,.T.);
#408=EDGE_CURVE('',#498,#499,#543,.T.);
#409=EDGE_CURVE('',#500,#499,#74,.T.);
#410=EDGE_CURVE('',#501,#500,#544,.T.);
#411=EDGE_CURVE('',#502,#501,#75,.T.);
#412=EDGE_CURVE('',#503,#502,#545,.T.);
#413=EDGE_CURVE('',#503,#504,#76,.T.);
#414=EDGE_CURVE('',#504,#505,#546,.T.);
#415=EDGE_CURVE('',#505,#481,#77,.T.);
#416=EDGE_CURVE('',#506,#507,#78,.T.);
#417=EDGE_CURVE('',#508,#507,#547,.T.);
#418=EDGE_CURVE('',#508,#509,#79,.T.);
#419=EDGE_CURVE('',#509,#510,#80,.T.);
#420=EDGE_CURVE('',#511,#510,#81,.T.);
#421=EDGE_CURVE('',#511,#512,#548,.T.);
#422=EDGE_CURVE('',#512,#513,#82,.T.);
#423=EDGE_CURVE('',#513,#514,#549,.T.);
#424=EDGE_CURVE('',#515,#514,#83,.T.);
#425=EDGE_CURVE('',#516,#515,#550,.T.);
#426=EDGE_CURVE('',#516,#517,#84,.T.);
#427=EDGE_CURVE('',#518,#517,#551,.T.);
#428=EDGE_CURVE('',#518,#519,#85,.T.);
#429=EDGE_CURVE('',#519,#520,#552,.T.);
#430=EDGE_CURVE('',#520,#521,#86,.T.);
#431=EDGE_CURVE('',#522,#521,#553,.T.);
#432=EDGE_CURVE('',#469,#522,#87,.T.);
#433=EDGE_CURVE('',#471,#478,#88,.F.);
#434=EDGE_CURVE('',#523,#479,#89,.T.);
#435=EDGE_CURVE('',#524,#523,#554,.T.);
#436=EDGE_CURVE('',#525,#524,#90,.T.);
#437=EDGE_CURVE('',#525,#526,#555,.T.);
#438=EDGE_CURVE('',#526,#527,#91,.T.);
#439=EDGE_CURVE('',#527,#528,#556,.T.);
#440=EDGE_CURVE('',#528,#529,#92,.T.);
#441=EDGE_CURVE('',#506,#529,#557,.T.);
#442=EDGE_CURVE('',#505,#523,#93,.T.);
#443=EDGE_CURVE('',#504,#524,#94,.T.);
#444=EDGE_CURVE('',#503,#525,#95,.T.);
#445=EDGE_CURVE('',#502,#526,#96,.T.);
#446=EDGE_CURVE('',#501,#527,#97,.T.);
#447=EDGE_CURVE('',#500,#528,#98,.T.);
#448=EDGE_CURVE('',#499,#529,#99,.T.);
#449=EDGE_CURVE('',#498,#506,#13,.F.);
#450=EDGE_CURVE('',#508,#496,#100,.T.);
#451=EDGE_CURVE('',#495,#509,#101,.T.);
#452=EDGE_CURVE('',#494,#510,#102,.T.);
#453=EDGE_CURVE('',#511,#493,#103,.T.);
#454=EDGE_CURVE('',#512,#492,#104,.T.);
#455=EDGE_CURVE('',#491,#513,#105,.T.);
#456=EDGE_CURVE('',#490,#514,#106,.T.);
#457=EDGE_CURVE('',#489,#515,#107,.T.);
#458=EDGE_CURVE('',#488,#516,#108,.T.);
#459=EDGE_CURVE('',#487,#517,#109,.T.);
#460=EDGE_CURVE('',#486,#518,#110,.T.);
#461=EDGE_CURVE('',#485,#519,#111,.T.);
#462=EDGE_CURVE('',#484,#520,#112,.T.);
#463=EDGE_CURVE('',#483,#521,#113,.T.);
#464=EDGE_CURVE('',#482,#522,#14,.F.);
#465=EDGE_CURVE('',#507,#497,#15,.F.);
#466=VERTEX_POINT('',#1027);
#467=VERTEX_POINT('',#1028);
#468=VERTEX_POINT('',#1030);
#469=VERTEX_POINT('',#1032);
#470=VERTEX_POINT('',#1036);
#471=VERTEX_POINT('',#1037);
#472=VERTEX_POINT('',#1039);
#473=VERTEX_POINT('',#1041);
#474=VERTEX_POINT('',#1045);
#475=VERTEX_POINT('',#1047);
#476=VERTEX_POINT('',#1051);
#477=VERTEX_POINT('',#1053);
#478=VERTEX_POINT('',#1060);
#479=VERTEX_POINT('',#1061);
#480=VERTEX_POINT('',#1066);
#481=VERTEX_POINT('',#1068);
#482=VERTEX_POINT('',#1073);
#483=VERTEX_POINT('',#1075);
#484=VERTEX_POINT('',#1077);
#485=VERTEX_POINT('',#1079);
#486=VERTEX_POINT('',#1081);
#487=VERTEX_POINT('',#1083);
#488=VERTEX_POINT('',#1085);
#489=VERTEX_POINT('',#1087);
#490=VERTEX_POINT('',#1089);
#491=VERTEX_POINT('',#1091);
#492=VERTEX_POINT('',#1093);
#493=VERTEX_POINT('',#1095);
#494=VERTEX_POINT('',#1097);
#495=VERTEX_POINT('',#1099);
#496=VERTEX_POINT('',#1101);
#497=VERTEX_POINT('',#1103);
#498=VERTEX_POINT('',#1105);
#499=VERTEX_POINT('',#1107);
#500=VERTEX_POINT('',#1109);
#501=VERTEX_POINT('',#1111);
#502=VERTEX_POINT('',#1113);
#503=VERTEX_POINT('',#1115);
#504=VERTEX_POINT('',#1117);
#505=VERTEX_POINT('',#1119);
#506=VERTEX_POINT('',#1123);
#507=VERTEX_POINT('',#1124);
#508=VERTEX_POINT('',#1126);
#509=VERTEX_POINT('',#1128);
#510=VERTEX_POINT('',#1130);
#511=VERTEX_POINT('',#1132);
#512=VERTEX_POINT('',#1134);
#513=VERTEX_POINT('',#1136);
#514=VERTEX_POINT('',#1138);
#515=VERTEX_POINT('',#1140);
#516=VERTEX_POINT('',#1142);
#517=VERTEX_POINT('',#1144);
#518=VERTEX_POINT('',#1146);
#519=VERTEX_POINT('',#1148);
#520=VERTEX_POINT('',#1150);
#521=VERTEX_POINT('',#1152);
#522=VERTEX_POINT('',#1154);
#523=VERTEX_POINT('',#1158);
#524=VERTEX_POINT('',#1160);
#525=VERTEX_POINT('',#1162);
#526=VERTEX_POINT('',#1164);
#527=VERTEX_POINT('',#1166);
#528=VERTEX_POINT('',#1168);
#529=VERTEX_POINT('',#1170);
#530=CIRCLE('',#773,0.00674);
#531=CIRCLE('',#774,0.00674);
#532=CIRCLE('',#776,0.00536);
#533=CIRCLE('',#777,0.00536);
#534=CIRCLE('',#782,0.00536);
#535=CIRCLE('',#783,0.00536);
#536=CIRCLE('',#785,0.00674);
#537=CIRCLE('',#786,0.0065);
#538=CIRCLE('',#787,0.00674);
#539=CIRCLE('',#788,0.00674);
#540=CIRCLE('',#789,0.0065);
#541=CIRCLE('',#790,0.0065);
#542=CIRCLE('',#791,0.00788);
#543=CIRCLE('',#792,0.00788);
#544=CIRCLE('',#793,0.00536);
#545=CIRCLE('',#794,0.00536);
#546=CIRCLE('',#795,0.00788);
#547=CIRCLE('',#797,0.00788);
#548=CIRCLE('',#798,0.0065);
#549=CIRCLE('',#799,0.0065);
#550=CIRCLE('',#800,0.00674);
#551=CIRCLE('',#801,0.00674);
#552=CIRCLE('',#802,0.0065);
#553=CIRCLE('',#803,0.00674);
#554=CIRCLE('',#804,0.00788);
#555=CIRCLE('',#805,0.00536);
#556=CIRCLE('',#806,0.00536);
#557=CIRCLE('',#807,0.00788);
#558=EDGE_LOOP('',(#178,#179,#180,#181));
#559=EDGE_LOOP('',(#182,#183,#184,#185));
#560=EDGE_LOOP('',(#186,#187,#188,#189));
#561=EDGE_LOOP('',(#190,#191,#192,#193));
#562=EDGE_LOOP('',(#194,#195,#196,#197));
#563=EDGE_LOOP('',(#198,#199,#200,#201));
#564=EDGE_LOOP('',(#202,#203,#204,#205,#206,#207,#208,#209,#210,#211,#212,
#213,#214,#215,#216,#217,#218,#219,#220,#221,#222,#223,#224,#225,#226,#227,
#228,#229,#230,#231,#232,#233));
#565=EDGE_LOOP('',(#234,#235,#236,#237,#238,#239,#240,#241,#242,#243,#244,
#245,#246,#247,#248,#249,#250,#251,#252,#253,#254,#255,#256,#257,#258,#259,
#260,#261,#262,#263,#264,#265));
#566=EDGE_LOOP('',(#266,#267,#268,#269));
#567=EDGE_LOOP('',(#270,#271,#272,#273));
#568=EDGE_LOOP('',(#274,#275,#276,#277));
#569=EDGE_LOOP('',(#278,#279,#280,#281));
#570=EDGE_LOOP('',(#282,#283,#284,#285));
#571=EDGE_LOOP('',(#286,#287,#288,#289));
#572=EDGE_LOOP('',(#290,#291,#292,#293));
#573=EDGE_LOOP('',(#294,#295,#296,#297));
#574=EDGE_LOOP('',(#298,#299,#300,#301));
#575=EDGE_LOOP('',(#302,#303,#304,#305));
#576=EDGE_LOOP('',(#306,#307,#308,#309));
#577=EDGE_LOOP('',(#310,#311,#312,#313));
#578=EDGE_LOOP('',(#314,#315,#316,#317));
#579=EDGE_LOOP('',(#318,#319,#320,#321));
#580=EDGE_LOOP('',(#322,#323,#324,#325));
#581=EDGE_LOOP('',(#326,#327,#328,#329));
#582=EDGE_LOOP('',(#330,#331,#332,#333));
#583=EDGE_LOOP('',(#334,#335,#336,#337));
#584=EDGE_LOOP('',(#338,#339,#340,#341));
#585=EDGE_LOOP('',(#342,#343,#344,#345));
#586=EDGE_LOOP('',(#346,#347,#348,#349));
#587=EDGE_LOOP('',(#350,#351,#352,#353));
#588=EDGE_LOOP('',(#354,#355,#356,#357));
#589=EDGE_LOOP('',(#358,#359,#360,#361));
#590=EDGE_LOOP('',(#362,#363,#364,#365));
#591=EDGE_LOOP('',(#366,#367,#368,#369));
#592=FACE_BOUND('',#558,.T.);
#593=FACE_BOUND('',#559,.T.);
#594=FACE_BOUND('',#560,.T.);
#595=FACE_BOUND('',#561,.T.);
#596=FACE_BOUND('',#562,.T.);
#597=FACE_BOUND('',#563,.T.);
#598=FACE_BOUND('',#564,.T.);
#599=FACE_BOUND('',#565,.T.);
#600=FACE_BOUND('',#566,.T.);
#601=FACE_BOUND('',#567,.T.);
#602=FACE_BOUND('',#568,.T.);
#603=FACE_BOUND('',#569,.T.);
#604=FACE_BOUND('',#570,.T.);
#605=FACE_BOUND('',#571,.T.);
#606=FACE_BOUND('',#572,.T.);
#607=FACE_BOUND('',#573,.T.);
#608=FACE_BOUND('',#574,.T.);
#609=FACE_BOUND('',#575,.T.);
#610=FACE_BOUND('',#576,.T.);
#611=FACE_BOUND('',#577,.T.);
#612=FACE_BOUND('',#578,.T.);
#613=FACE_BOUND('',#579,.T.);
#614=FACE_BOUND('',#580,.T.);
#615=FACE_BOUND('',#581,.T.);
#616=FACE_BOUND('',#582,.T.);
#617=FACE_BOUND('',#583,.T.);
#618=FACE_BOUND('',#584,.T.);
#619=FACE_BOUND('',#585,.T.);
#620=FACE_BOUND('',#586,.T.);
#621=FACE_BOUND('',#587,.T.);
#622=FACE_BOUND('',#588,.T.);
#623=FACE_BOUND('',#589,.T.);
#624=FACE_BOUND('',#590,.T.);
#625=FACE_BOUND('',#591,.T.);
#626=CYLINDRICAL_SURFACE('',#772,0.00674);
#627=CYLINDRICAL_SURFACE('',#775,0.00536);
#628=CYLINDRICAL_SURFACE('',#781,0.00536);
#629=CYLINDRICAL_SURFACE('',#809,0.00788);
#630=CYLINDRICAL_SURFACE('',#811,0.00536);
#631=CYLINDRICAL_SURFACE('',#813,0.00536);
#632=CYLINDRICAL_SURFACE('',#815,0.00788);
#633=CYLINDRICAL_SURFACE('',#819,0.0065);
#634=CYLINDRICAL_SURFACE('',#821,0.0065);
#635=CYLINDRICAL_SURFACE('',#823,0.00674);
#636=CYLINDRICAL_SURFACE('',#825,0.00674);
#637=CYLINDRICAL_SURFACE('',#827,0.0065);
#638=CYLINDRICAL_SURFACE('',#829,0.00674);
#639=CYLINDRICAL_SURFACE('',#833,0.00788);
#640=ADVANCED_FACE('',(#592),#626,.T.);
#641=ADVANCED_FACE('',(#593),#627,.F.);
#642=ADVANCED_FACE('',(#594),#16,.T.);
#643=ADVANCED_FACE('',(#595),#17,.F.);
#644=ADVANCED_FACE('',(#596),#18,.F.);
#645=ADVANCED_FACE('',(#597),#628,.F.);
#646=ADVANCED_FACE('',(#598),#19,.T.);
#647=ADVANCED_FACE('',(#599),#20,.F.);
#648=ADVANCED_FACE('',(#600),#21,.F.);
#649=ADVANCED_FACE('',(#601),#629,.T.);
#650=ADVANCED_FACE('',(#602),#22,.F.);
#651=ADVANCED_FACE('',(#603),#630,.F.);
#652=ADVANCED_FACE('',(#604),#23,.T.);
#653=ADVANCED_FACE('',(#605),#631,.F.);
#654=ADVANCED_FACE('',(#606),#24,.T.);
#655=ADVANCED_FACE('',(#607),#632,.T.);
#656=ADVANCED_FACE('',(#608),#25,.F.);
#657=ADVANCED_FACE('',(#609),#26,.T.);
#658=ADVANCED_FACE('',(#610),#27,.T.);
#659=ADVANCED_FACE('',(#611),#633,.F.);
#660=ADVANCED_FACE('',(#612),#28,.F.);
#661=ADVANCED_FACE('',(#613),#634,.F.);
#662=ADVANCED_FACE('',(#614),#29,.F.);
#663=ADVANCED_FACE('',(#615),#635,.T.);
#664=ADVANCED_FACE('',(#616),#30,.T.);
#665=ADVANCED_FACE('',(#617),#636,.T.);
#666=ADVANCED_FACE('',(#618),#31,.T.);
#667=ADVANCED_FACE('',(#619),#637,.F.);
#668=ADVANCED_FACE('',(#620),#32,.T.);
#669=ADVANCED_FACE('',(#621),#638,.T.);
#670=ADVANCED_FACE('',(#622),#33,.T.);
#671=ADVANCED_FACE('',(#623),#34,.T.);
#672=ADVANCED_FACE('',(#624),#35,.F.);
#673=ADVANCED_FACE('',(#625),#639,.T.);
#674=CLOSED_SHELL('',(#640,#641,#642,#643,#644,#645,#646,#647,#648,#649,
#650,#651,#652,#653,#654,#655,#656,#657,#658,#659,#660,#661,#662,#663,#664,
#665,#666,#667,#668,#669,#670,#671,#672,#673));
#675=STYLED_ITEM('',(#676),#768);
#676=PRESENTATION_STYLE_ASSIGNMENT((#691));
#677=PRESENTATION_STYLE_ASSIGNMENT((#692));
#678=PRESENTATION_STYLE_ASSIGNMENT((#693));
#679=PRESENTATION_STYLE_ASSIGNMENT((#694));
#680=PRESENTATION_STYLE_ASSIGNMENT((#695));
#681=PRESENTATION_STYLE_ASSIGNMENT((#696));
#682=PRESENTATION_STYLE_ASSIGNMENT((#697));
#683=PRESENTATION_STYLE_ASSIGNMENT((#698));
#684=PRESENTATION_STYLE_ASSIGNMENT((#699));
#685=PRESENTATION_STYLE_ASSIGNMENT((#700));
#686=PRESENTATION_STYLE_ASSIGNMENT((#701));
#687=PRESENTATION_STYLE_ASSIGNMENT((#702));
#688=PRESENTATION_STYLE_ASSIGNMENT((#703));
#689=PRESENTATION_STYLE_ASSIGNMENT((#704));
#690=PRESENTATION_STYLE_ASSIGNMENT((#705));
#691=SURFACE_STYLE_USAGE(.BOTH.,#706);
#692=SURFACE_STYLE_USAGE(.BOTH.,#707);
#693=SURFACE_STYLE_USAGE(.BOTH.,#708);
#694=SURFACE_STYLE_USAGE(.BOTH.,#709);
#695=SURFACE_STYLE_USAGE(.BOTH.,#710);
#696=SURFACE_STYLE_USAGE(.BOTH.,#711);
#697=SURFACE_STYLE_USAGE(.BOTH.,#712);
#698=SURFACE_STYLE_USAGE(.BOTH.,#713);
#699=SURFACE_STYLE_USAGE(.BOTH.,#714);
#700=SURFACE_STYLE_USAGE(.BOTH.,#715);
#701=SURFACE_STYLE_USAGE(.BOTH.,#716);
#702=SURFACE_STYLE_USAGE(.BOTH.,#717);
#703=SURFACE_STYLE_USAGE(.BOTH.,#718);
#704=SURFACE_STYLE_USAGE(.BOTH.,#719);
#705=SURFACE_STYLE_USAGE(.BOTH.,#720);
#706=SURFACE_SIDE_STYLE('',(#721));
#707=SURFACE_SIDE_STYLE('',(#722));
#708=SURFACE_SIDE_STYLE('',(#723));
#709=SURFACE_SIDE_STYLE('',(#724));
#710=SURFACE_SIDE_STYLE('',(#725));
#711=SURFACE_SIDE_STYLE('',(#726));
#712=SURFACE_SIDE_STYLE('',(#727));
#713=SURFACE_SIDE_STYLE('',(#728));
#714=SURFACE_SIDE_STYLE('',(#729));
#715=SURFACE_SIDE_STYLE('',(#730));
#716=SURFACE_SIDE_STYLE('',(#731));
#717=SURFACE_SIDE_STYLE('',(#732));
#718=SURFACE_SIDE_STYLE('',(#733));
#719=SURFACE_SIDE_STYLE('',(#734));
#720=SURFACE_SIDE_STYLE('',(#735));
#721=SURFACE_STYLE_FILL_AREA(#736);
#722=SURFACE_STYLE_FILL_AREA(#737);
#723=SURFACE_STYLE_FILL_AREA(#738);
#724=SURFACE_STYLE_FILL_AREA(#739);
#725=SURFACE_STYLE_FILL_AREA(#740);
#726=SURFACE_STYLE_FILL_AREA(#741);
#727=SURFACE_STYLE_FILL_AREA(#742);
#728=SURFACE_STYLE_FILL_AREA(#743);
#729=SURFACE_STYLE_FILL_AREA(#744);
#730=SURFACE_STYLE_FILL_AREA(#745);
#731=SURFACE_STYLE_FILL_AREA(#746);
#732=SURFACE_STYLE_FILL_AREA(#747);
#733=SURFACE_STYLE_FILL_AREA(#748);
#734=SURFACE_STYLE_FILL_AREA(#749);
#735=SURFACE_STYLE_FILL_AREA(#750);
#736=FILL_AREA_STYLE('',(#751));
#737=FILL_AREA_STYLE('',(#752));
#738=FILL_AREA_STYLE('',(#753));
#739=FILL_AREA_STYLE('',(#754));
#740=FILL_AREA_STYLE('',(#755));
#741=FILL_AREA_STYLE('',(#756));
#742=FILL_AREA_STYLE('',(#757));
#743=FILL_AREA_STYLE('',(#758));
#744=FILL_AREA_STYLE('',(#759));
#745=FILL_AREA_STYLE('',(#760));
#746=FILL_AREA_STYLE('',(#761));
#747=FILL_AREA_STYLE('',(#762));
#748=FILL_AREA_STYLE('',(#763));
#749=FILL_AREA_STYLE('',(#764));
#750=FILL_AREA_STYLE('',(#765));
#751=FILL_AREA_STYLE_COLOUR('',#766);
#752=FILL_AREA_STYLE_COLOUR('',#767);
#753=FILL_AREA_STYLE_COLOUR('',#767);
#754=FILL_AREA_STYLE_COLOUR('',#767);
#755=FILL_AREA_STYLE_COLOUR('',#767);
#756=FILL_AREA_STYLE_COLOUR('',#767);
#757=FILL_AREA_STYLE_COLOUR('',#767);
#758=FILL_AREA_STYLE_COLOUR('',#767);
#759=FILL_AREA_STYLE_COLOUR('',#767);
#760=FILL_AREA_STYLE_COLOUR('',#767);
#761=FILL_AREA_STYLE_COLOUR('',#767);
#762=FILL_AREA_STYLE_COLOUR('',#767);
#763=FILL_AREA_STYLE_COLOUR('',#767);
#764=FILL_AREA_STYLE_COLOUR('',#767);
#765=FILL_AREA_STYLE_COLOUR('',#767);
#766=COLOUR_RGB('',0.196078431372549,0.196078431372549,0.196078431372549);
#767=COLOUR_RGB('',0.756862745098039,0.462745098039216,0.109803921568627);
#768=MANIFOLD_SOLID_BREP('9mm_AWD_Bottom_Belt',#674);
#769=SHAPE_DEFINITION_REPRESENTATION(#1237,#770);
#770=SHAPE_REPRESENTATION('9mm_AWD_Bottom_Belt',(#771),#1232);
#771=AXIS2_PLACEMENT_3D('',#1024,#834,#835);
#772=AXIS2_PLACEMENT_3D('',#1025,#836,#837);
#773=AXIS2_PLACEMENT_3D('',#1026,#838,#839);
#774=AXIS2_PLACEMENT_3D('',#1031,#841,#842);
#775=AXIS2_PLACEMENT_3D('',#1034,#844,#845);
#776=AXIS2_PLACEMENT_3D('',#1035,#846,#847);
#777=AXIS2_PLACEMENT_3D('',#1040,#849,#850);
#778=AXIS2_PLACEMENT_3D('',#1043,#852,#853);
#779=AXIS2_PLACEMENT_3D('',#1049,#857,#858);
#780=AXIS2_PLACEMENT_3D('',#1055,#862,#863);
#781=AXIS2_PLACEMENT_3D('',#1058,#866,#867);
#782=AXIS2_PLACEMENT_3D('',#1059,#868,#869);
#783=AXIS2_PLACEMENT_3D('',#1067,#870,#871);
#784=AXIS2_PLACEMENT_3D('',#1070,#873,#874);
#785=AXIS2_PLACEMENT_3D('',#1074,#877,#878);
#786=AXIS2_PLACEMENT_3D('',#1078,#880,#881);
#787=AXIS2_PLACEMENT_3D('',#1082,#883,#884);
#788=AXIS2_PLACEMENT_3D('',#1086,#886,#887);
#789=AXIS2_PLACEMENT_3D('',#1090,#889,#890);
#790=AXIS2_PLACEMENT_3D('',#1094,#892,#893);
#791=AXIS2_PLACEMENT_3D('',#1102,#897,#898);
#792=AXIS2_PLACEMENT_3D('',#1106,#900,#901);
#793=AXIS2_PLACEMENT_3D('',#1110,#903,#904);
#794=AXIS2_PLACEMENT_3D('',#1114,#906,#907);
#795=AXIS2_PLACEMENT_3D('',#1118,#909,#910);
#796=AXIS2_PLACEMENT_3D('',#1121,#912,#913);
#797=AXIS2_PLACEMENT_3D('',#1125,#915,#916);
#798=AXIS2_PLACEMENT_3D('',#1133,#920,#921);
#799=AXIS2_PLACEMENT_3D('',#1137,#923,#924);
#800=AXIS2_PLACEMENT_3D('',#1141,#926,#927);
#801=AXIS2_PLACEMENT_3D('',#1145,#929,#930);
#802=AXIS2_PLACEMENT_3D('',#1149,#932,#933);
#803=AXIS2_PLACEMENT_3D('',#1153,#935,#936);
#804=AXIS2_PLACEMENT_3D('',#1159,#940,#941);
#805=AXIS2_PLACEMENT_3D('',#1163,#943,#944);
#806=AXIS2_PLACEMENT_3D('',#1167,#946,#947);
#807=AXIS2_PLACEMENT_3D('',#1171,#949,#950);
#808=AXIS2_PLACEMENT_3D('',#1172,#951,#952);
#809=AXIS2_PLACEMENT_3D('',#1174,#954,#955);
#810=AXIS2_PLACEMENT_3D('',#1176,#957,#958);
#811=AXIS2_PLACEMENT_3D('',#1178,#960,#961);
#812=AXIS2_PLACEMENT_3D('',#1180,#963,#964);
#813=AXIS2_PLACEMENT_3D('',#1182,#966,#967);
#814=AXIS2_PLACEMENT_3D('',#1184,#969,#970);
#815=AXIS2_PLACEMENT_3D('',#1186,#972,#973);
#816=AXIS2_PLACEMENT_3D('',#1191,#974,#975);
#817=AXIS2_PLACEMENT_3D('',#1194,#978,#979);
#818=AXIS2_PLACEMENT_3D('',#1196,#981,#982);
#819=AXIS2_PLACEMENT_3D('',#1198,#984,#985);
#820=AXIS2_PLACEMENT_3D('',#1200,#987,#988);
#821=AXIS2_PLACEMENT_3D('',#1202,#990,#991);
#822=AXIS2_PLACEMENT_3D('',#1204,#993,#994);
#823=AXIS2_PLACEMENT_3D('',#1206,#996,#997);
#824=AXIS2_PLACEMENT_3D('',#1208,#999,#1000);
#825=AXIS2_PLACEMENT_3D('',#1210,#1002,#1003);
#826=AXIS2_PLACEMENT_3D('',#1212,#1005,#1006);
#827=AXIS2_PLACEMENT_3D('',#1214,#1008,#1009);
#828=AXIS2_PLACEMENT_3D('',#1216,#1011,#1012);
#829=AXIS2_PLACEMENT_3D('',#1218,#1014,#1015);
#830=AXIS2_PLACEMENT_3D('',#1223,#1016,#1017);
#831=AXIS2_PLACEMENT_3D('',#1224,#1018,#1019);
#832=AXIS2_PLACEMENT_3D('',#1225,#1020,#1021);
#833=AXIS2_PLACEMENT_3D('',#1230,#1022,#1023);
#834=DIRECTION('',(0.,0.,1.));
#835=DIRECTION('',(1.,0.,0.));
#836=DIRECTION('',(2.00810188406429E-6,3.39910979293732E-9,0.999999999997984));
#837=DIRECTION('',(6.77024802368644E-15,-1.,3.39910979293057E-9));
#838=DIRECTION('',(2.00810188406429E-6,3.39910979293732E-9,0.999999999997984));
#839=DIRECTION('',(6.77024802368644E-15,-1.,3.39910979293057E-9));
#840=DIRECTION('',(2.00810188406429E-6,3.39910979293732E-9,0.999999999997984));
#841=DIRECTION('',(2.00810188406429E-6,3.39910979293732E-9,0.999999999997984));
#842=DIRECTION('',(0.999999999997984,0.,-2.00810188406429E-6));
#843=DIRECTION('',(2.00810188406429E-6,3.39910979293732E-9,0.999999999997984));
#844=DIRECTION('',(2.00810188406429E-6,3.39910979293732E-9,0.999999999997984));
#845=DIRECTION('',(6.77024802368644E-15,-1.,3.39910979293057E-9));
#846=DIRECTION('',(2.00810188406429E-6,3.39910979293732E-9,0.999999999997984));
#847=DIRECTION('',(0.999999999997984,0.,-2.00810188406429E-6));
#848=DIRECTION('',(2.00810188406429E-6,3.39910979293732E-9,0.999999999997984));
#849=DIRECTION('',(2.00810188406429E-6,3.39910979293732E-9,0.999999999997984));
#850=DIRECTION('',(6.77024802368644E-15,-1.,3.39910979293057E-9));
#851=DIRECTION('',(2.00810188406429E-6,3.39910979293732E-9,0.999999999997984));
#852=DIRECTION('',(6.89192201452167E-15,-1.,3.39910979293032E-9));
#853=DIRECTION('',(-2.00810199561832E-6,-3.39910979293732E-9,-0.999999999997984));
#854=DIRECTION('',(-0.999999999997984,-6.61632351829934E-17,2.00810188406429E-6));
#855=DIRECTION('',(-0.999999999997984,-6.61632351829861E-17,2.00810188406429E-6));
#856=DIRECTION('',(-2.00810199561832E-6,-3.39910979293732E-9,-0.999999999997984));
#857=DIRECTION('',(0.999999999997984,-5.5511134836869E-17,-2.00810199561832E-6));
#858=DIRECTION('',(-2.00810199561832E-6,-3.39927222264392E-9,-0.999999999997984));
#859=DIRECTION('',(6.77024802368644E-15,-1.,3.39910979293058E-9));
#860=DIRECTION('',(6.77024802368644E-15,-1.,3.39910979293057E-9));
#861=DIRECTION('',(-2.00810199561832E-6,-3.39910979293732E-9,-0.999999999997984));
#862=DIRECTION('',(6.89300838943968E-15,-1.,3.39910979293032E-9));
#863=DIRECTION('',(-2.00810199561832E-6,-3.39910979293732E-9,-0.999999999997984));
#864=DIRECTION('',(-0.999999999997984,-6.72496101010055E-17,2.00810188406429E-6));
#865=DIRECTION('',(-0.999999999997984,-6.7249610100998E-17,2.00810188406429E-6));
#866=DIRECTION('',(-2.00810188406429E-6,-3.39910979293732E-9,-0.999999999997984));
#867=DIRECTION('',(-6.77024802368644E-15,1.,-3.39910979293057E-9));
#868=DIRECTION('',(2.00810188406429E-6,3.39910979293732E-9,0.999999999997984));
#869=DIRECTION('',(0.999999999997984,0.,-2.00810188406429E-6));
#870=DIRECTION('',(2.00810188406429E-6,3.39910979293732E-9,0.999999999997984));
#871=DIRECTION('',(6.77024802368644E-15,-1.,3.39910979293057E-9));
#872=DIRECTION('',(-2.00810188406429E-6,-3.39910979293732E-9,-0.999999999997984));
#873=DIRECTION('',(2.00810188406429E-6,3.39910979293732E-9,0.999999999997984));
#874=DIRECTION('',(0.999999999997984,-5.55107556524926E-17,-2.00810188406429E-6));
#875=DIRECTION('',(-6.77024802368644E-15,1.,-3.39910979293057E-9));
#876=DIRECTION('',(-6.77024802368644E-15,1.,-3.39910979293057E-9));
#877=DIRECTION('',(2.00810188406429E-6,3.39910979293732E-9,0.999999999997984));
#878=DIRECTION('',(6.77024802368644E-15,-1.,3.39910979293057E-9));
#879=DIRECTION('',(0.0932072304890678,0.995646730615092,-1.90553927706236E-7));
#880=DIRECTION('',(2.00810188406429E-6,3.39910979293732E-9,0.999999999997984));
#881=DIRECTION('',(6.77024802368644E-15,-1.,3.39910979293057E-9));
#882=DIRECTION('',(0.999999999997984,-2.9864386579049E-14,-2.00810188406429E-6));
#883=DIRECTION('',(2.00810188406429E-6,3.39910979293732E-9,0.999999999997984));
#884=DIRECTION('',(6.77024802368644E-15,-1.,3.39910979293057E-9));
#885=DIRECTION('',(-6.77024802368644E-15,1.,-3.39910979293057E-9));
#886=DIRECTION('',(2.00810188406429E-6,3.39910979293732E-9,0.999999999997984));
#887=DIRECTION('',(6.77024802368644E-15,-1.,3.39910979293057E-9));
#888=DIRECTION('',(-0.618848891099167,0.785510057213651,1.24004158924191E-6));
#889=DIRECTION('',(2.00810188406429E-6,3.39910979293732E-9,0.999999999997984));
#890=DIRECTION('',(6.77024802368644E-15,-1.,3.39910979293057E-9));
#891=DIRECTION('',(6.77024802368644E-15,-1.,3.39910979293057E-9));
#892=DIRECTION('',(2.00810188406429E-6,3.39910979293732E-9,0.999999999997984));
#893=DIRECTION('',(6.77024802368644E-15,-1.,3.39910979293057E-9));
#894=DIRECTION('',(0.999999999997984,6.61632351829861E-17,-2.00810188406429E-6));
#895=DIRECTION('',(6.77024802368644E-15,-1.,3.39910979293057E-9));
#896=DIRECTION('',(0.999999999997984,6.7249610100998E-17,-2.00810188406429E-6));
#897=DIRECTION('',(2.00810188406429E-6,3.39910979293732E-9,0.999999999997984));
#898=DIRECTION('',(6.77024802368644E-15,-1.,3.39910979293057E-9));
#899=DIRECTION('',(-4.27805265634639E-9,1.,-3.39910120217856E-9));
#900=DIRECTION('',(2.00810188406429E-6,3.39910979293732E-9,0.999999999997984));
#901=DIRECTION('',(6.77024802368644E-15,-1.,3.39910979293057E-9));
#902=DIRECTION('',(-0.618848891099167,0.785510057213652,1.24004158924191E-6));
#903=DIRECTION('',(2.00810188406429E-6,3.39910979293732E-9,0.999999999997984));
#904=DIRECTION('',(6.77024802368644E-15,-1.,3.39910979293057E-9));
#905=DIRECTION('',(6.77024802368644E-15,-1.,3.39910979293057E-9));
#906=DIRECTION('',(2.00810188406429E-6,3.39910979293732E-9,0.999999999997984));
#907=DIRECTION('',(6.77024802368644E-15,-1.,3.39910979293057E-9));
#908=DIRECTION('',(0.999999999997984,-2.9864386579049E-14,-2.00810188406429E-6));
#909=DIRECTION('',(2.00810188406429E-6,3.39910979293732E-9,0.999999999997984));
#910=DIRECTION('',(6.77024802368644E-15,-1.,3.39910979293057E-9));
#911=DIRECTION('',(0.0932072304890709,0.995646730615092,-1.90553927706242E-7));
#912=DIRECTION('',(2.00810188406429E-6,3.39910979293732E-9,0.999999999997984));
#913=DIRECTION('',(0.999999999997984,-5.55107556524926E-17,-2.00810188406429E-6));
#914=DIRECTION('',(-4.27805265634639E-9,1.,-3.39910120217857E-9));
#915=DIRECTION('',(2.00810188406429E-6,3.39910979293732E-9,0.999999999997984));
#916=DIRECTION('',(0.999999999997984,0.,-2.00810188406429E-6));
#917=DIRECTION('',(0.999999999997984,6.72496101010055E-17,-2.00810188406429E-6));
#918=DIRECTION('',(6.77024802368644E-15,-1.,3.39910979293058E-9));
#919=DIRECTION('',(0.999999999997984,6.61632351829934E-17,-2.00810188406429E-6));
#920=DIRECTION('',(2.00810188406429E-6,3.39910979293732E-9,0.999999999997984));
#921=DIRECTION('',(0.999999999997984,0.,-2.00810188406429E-6));
#922=DIRECTION('',(6.77024802368644E-15,-1.,3.39910979293058E-9));
#923=DIRECTION('',(2.00810188406429E-6,3.39910979293732E-9,0.999999999997984));
#924=DIRECTION('',(0.999999999997984,0.,-2.00810188406429E-6));
#925=DIRECTION('',(-0.618848891099167,0.785510057213651,1.24004158924191E-6));
#926=DIRECTION('',(2.00810188406429E-6,3.39910979293732E-9,0.999999999997984));
#927=DIRECTION('',(0.999999999997984,0.,-2.00810188406429E-6));
#928=DIRECTION('',(-6.77024802368644E-15,1.,-3.39910979293058E-9));
#929=DIRECTION('',(2.00810188406429E-6,3.39910979293732E-9,0.999999999997984));
#930=DIRECTION('',(0.999999999997984,0.,-2.00810188406429E-6));
#931=DIRECTION('',(0.999999999997984,-2.9864386579049E-14,-2.00810188406429E-6));
#932=DIRECTION('',(2.00810188406429E-6,3.39910979293732E-9,0.999999999997984));
#933=DIRECTION('',(0.999999999997984,0.,-2.00810188406429E-6));
#934=DIRECTION('',(0.0932072304890678,0.995646730615092,-1.90553927706236E-7));
#935=DIRECTION('',(2.00810188406429E-6,3.39910979293732E-9,0.999999999997984));
#936=DIRECTION('',(0.999999999997984,0.,-2.00810188406429E-6));
#937=DIRECTION('',(-6.77024802368644E-15,1.,-3.39910979293058E-9));
#938=DIRECTION('',(6.77024802368644E-15,-1.,3.39910979293058E-9));
#939=DIRECTION('',(0.0932072304890709,0.995646730615092,-1.90553927706242E-7));
#940=DIRECTION('',(2.00810188406429E-6,3.39910979293732E-9,0.999999999997984));
#941=DIRECTION('',(0.999999999997984,0.,-2.00810188406429E-6));
#942=DIRECTION('',(0.999999999997984,-2.9864386579049E-14,-2.00810188406429E-6));
#943=DIRECTION('',(2.00810188406429E-6,3.39910979293732E-9,0.999999999997984));
#944=DIRECTION('',(0.999999999997984,0.,-2.00810188406429E-6));
#945=DIRECTION('',(6.77024802368644E-15,-1.,3.39910979293058E-9));
#946=DIRECTION('',(2.00810188406429E-6,3.39910979293732E-9,0.999999999997984));
#947=DIRECTION('',(0.999999999997984,0.,-2.00810188406429E-6));
#948=DIRECTION('',(-0.618848891099166,0.785510057213652,1.24004158924191E-6));
#949=DIRECTION('',(2.00810188406429E-6,3.39910979293732E-9,0.999999999997984));
#950=DIRECTION('',(0.999999999997984,0.,-2.00810188406429E-6));
#951=DIRECTION('',(-0.995646730613085,0.0932072304892656,1.99904325400069E-6));
#952=DIRECTION('',(-0.0932072304890709,-0.995646730615092,1.90554099826491E-7));
#953=DIRECTION('',(-2.00810188406429E-6,-3.39910979293732E-9,-0.999999999997984));
#954=DIRECTION('',(-2.00810188406429E-6,-3.39910979293732E-9,-0.999999999997984));
#955=DIRECTION('',(-6.77024802368644E-15,1.,-3.39910979293057E-9));
#956=DIRECTION('',(-2.00810188406429E-6,-3.39910979293732E-9,-0.999999999997984));
#957=DIRECTION('',(2.303862779965E-14,1.,-3.39910979299043E-9));
#958=DIRECTION('',(2.00810199561832E-6,3.39910979293732E-9,0.999999999997984));
#959=DIRECTION('',(-2.00810188406429E-6,-3.39910979293732E-9,-0.999999999997984));
#960=DIRECTION('',(-2.00810188406429E-6,-3.39910979293732E-9,-0.999999999997984));
#961=DIRECTION('',(-6.77024802368644E-15,1.,-3.39910979293057E-9));
#962=DIRECTION('',(-2.00810188406429E-6,-3.39910979293732E-9,-0.999999999997984));
#963=DIRECTION('',(0.999999999997984,-5.5511134836869E-17,-2.00810199561832E-6));
#964=DIRECTION('',(-6.77057419883293E-15,1.,-3.39927222263706E-9));
#965=DIRECTION('',(-2.00810188406429E-6,-3.39910979293732E-9,-0.999999999997984));
#966=DIRECTION('',(-2.00810188406429E-6,-3.39910979293732E-9,-0.999999999997984));
#967=DIRECTION('',(-6.77024802368644E-15,1.,-3.39910979293057E-9));
#968=DIRECTION('',(-2.00810188406429E-6,-3.39910979293732E-9,-0.999999999997984));
#969=DIRECTION('',(-0.785510057212064,-0.618848891100409,1.57948776116827E-6));
#970=DIRECTION('',(0.618848891099167,-0.785510057213652,-1.24004153068683E-6));
#971=DIRECTION('',(-2.00810188406429E-6,-3.39910979293732E-9,-0.999999999997984));
#972=DIRECTION('',(-2.00810188406429E-6,-3.39910979293732E-9,-0.999999999997984));
#973=DIRECTION('',(-6.77024802368644E-15,1.,-3.39910979293057E-9));
#974=DIRECTION('',(6.89300838943968E-15,-1.,3.39910979293032E-9));
#975=DIRECTION('',(-2.00810199561832E-6,-3.39910979293732E-9,-0.999999999997984));
#976=DIRECTION('',(2.00810188406429E-6,3.39910979293732E-9,0.999999999997984));
#977=DIRECTION('',(-2.00810199561832E-6,-3.39910979293732E-9,-0.999999999997984));
#978=DIRECTION('',(0.999999999997984,-5.5511134836869E-17,-2.00810199561832E-6));
#979=DIRECTION('',(-2.00810199561832E-6,-3.39927222264392E-9,-0.999999999997984));
#980=DIRECTION('',(-2.00810199561832E-6,-3.39910979293732E-9,-0.999999999997984));
#981=DIRECTION('',(6.89192201452167E-15,-1.,3.39910979293032E-9));
#982=DIRECTION('',(-2.00810199561832E-6,-3.39910979293732E-9,-0.999999999997984));
#983=DIRECTION('',(2.00810188406429E-6,3.39910979293732E-9,0.999999999997984));
#984=DIRECTION('',(2.00810188406429E-6,3.39910979293732E-9,0.999999999997984));
#985=DIRECTION('',(6.77024802368644E-15,-1.,3.39910979293057E-9));
#986=DIRECTION('',(2.00810188406429E-6,3.39910979293732E-9,0.999999999997984));
#987=DIRECTION('',(-0.999999999997984,5.5511134836869E-17,2.00810199561832E-6));
#988=DIRECTION('',(6.77057419908719E-15,-1.,3.39927222263694E-9));
#989=DIRECTION('',(-2.00810188406429E-6,-3.39910979293732E-9,-0.999999999997984));
#990=DIRECTION('',(-2.00810188406429E-6,-3.39910979293732E-9,-0.999999999997984));
#991=DIRECTION('',(-6.77024802368644E-15,1.,-3.39910979293057E-9));
#992=DIRECTION('',(-2.00810188406429E-6,-3.39910979293732E-9,-0.999999999997984));
#993=DIRECTION('',(-0.785510057212063,-0.618848891100409,1.57948776116827E-6));
#994=DIRECTION('',(0.618848891099167,-0.785510057213652,-1.24004153068683E-6));
#995=DIRECTION('',(-2.00810188406429E-6,-3.39910979293732E-9,-0.999999999997984));
#996=DIRECTION('',(-2.00810188406429E-6,-3.39910979293732E-9,-0.999999999997984));
#997=DIRECTION('',(-6.77024802368644E-15,1.,-3.39910979293057E-9));
#998=DIRECTION('',(-2.00810188406429E-6,-3.39910979293732E-9,-0.999999999997984));
#999=DIRECTION('',(-0.999999999997984,5.5511134836869E-17,2.00810199561832E-6));
#1000=DIRECTION('',(6.77057419883293E-15,-1.,3.39927222263706E-9));
#1001=DIRECTION('',(-2.00810188406429E-6,-3.39910979293732E-9,-0.999999999997984));
#1002=DIRECTION('',(-2.00810188406429E-6,-3.39910979293732E-9,-0.999999999997984));
#1003=DIRECTION('',(-6.77024802368644E-15,1.,-3.39910979293057E-9));
#1004=DIRECTION('',(-2.00810188406429E-6,-3.39910979293732E-9,-0.999999999997984));
#1005=DIRECTION('',(2.303862779965E-14,1.,-3.39910979299043E-9));
#1006=DIRECTION('',(2.00810199561832E-6,3.39910979293732E-9,0.999999999997984));
#1007=DIRECTION('',(-2.00810188406429E-6,-3.39910979293732E-9,-0.999999999997984));
#1008=DIRECTION('',(-2.00810188406429E-6,-3.39910979293732E-9,-0.999999999997984));
#1009=DIRECTION('',(-6.77024802368644E-15,1.,-3.39910979293057E-9));
#1010=DIRECTION('',(-2.00810188406429E-6,-3.39910979293732E-9,-0.999999999997984));
#1011=DIRECTION('',(-0.995646730613085,0.0932072304892625,1.99904325400069E-6));
#1012=DIRECTION('',(-0.0932072304890678,-0.995646730615092,1.90554099826484E-7));
#1013=DIRECTION('',(-2.00810188406429E-6,-3.39910979293732E-9,-0.999999999997984));
#1014=DIRECTION('',(-2.00810188406429E-6,-3.39910979293732E-9,-0.999999999997984));
#1015=DIRECTION('',(-6.77024802368644E-15,1.,-3.39910979293057E-9));
#1016=DIRECTION('',(0.999999999997984,-5.5511134836869E-17,-2.00810199561832E-6));
#1017=DIRECTION('',(-6.77057419910751E-15,1.,-3.39927222263717E-9));
#1018=DIRECTION('',(-0.999999999997984,5.5511134836869E-17,2.00810199561832E-6));
#1019=DIRECTION('',(6.77057419909997E-15,-1.,3.39927222263717E-9));
#1020=DIRECTION('',(0.999999999997984,4.27804583059624E-9,-2.00810188407883E-6));
#1021=DIRECTION('',(-4.27805265667256E-9,1.,-3.39926363181329E-9));
#1022=DIRECTION('',(2.00810188406429E-6,3.39910979293732E-9,0.999999999997984));
#1023=DIRECTION('',(6.77024802368644E-15,-1.,3.39910979293057E-9));
#1024=CARTESIAN_POINT('',(0.,0.,0.));
#1025=CARTESIAN_POINT('',(0.161099983221572,-0.17399994714255,0.331999307645505));
#1026=CARTESIAN_POINT('',(0.161099995270183,-0.173999947122156,0.337999307645493));
#1027=CARTESIAN_POINT('',(0.161099995270183,-0.180739947124424,0.337999307668403));
#1028=CARTESIAN_POINT('',(0.16783999527017,-0.173999947102933,0.337999294110886));
#1029=CARTESIAN_POINT('',(0.161099983221572,-0.180739947143685,0.331999307668415));
#1030=CARTESIAN_POINT('',(0.161099977197267,-0.180739947153882,0.328999307668421));
#1031=CARTESIAN_POINT('',(0.161099977197267,-0.173999947152748,0.32899930764551));
#1032=CARTESIAN_POINT('',(0.167839977161506,-0.173999947152748,0.328999294110904));
#1033=CARTESIAN_POINT('',(0.167839983185812,-0.17399994714255,0.331999294110897));
#1034=CARTESIAN_POINT('',(0.161099945067636,-0.173999947207133,0.312999307645543));
#1035=CARTESIAN_POINT('',(0.161099977197266,-0.173999947152748,0.32899930764551));
#1036=CARTESIAN_POINT('',(0.161099977197267,-0.179359947153882,0.32899930766373));
#1037=CARTESIAN_POINT('',(0.166459977161508,-0.173999947152748,0.328999296882085));
#1038=CARTESIAN_POINT('',(0.161099945067636,-0.179359947208268,0.312999307663762));
#1039=CARTESIAN_POINT('',(0.161099995270183,-0.179359947122156,0.337999307663712));
#1040=CARTESIAN_POINT('',(0.161099995270183,-0.173999947122156,0.337999307645493));
#1041=CARTESIAN_POINT('',(0.166459995270172,-0.173999947110691,0.337999296882066));
#1042=CARTESIAN_POINT('',(0.166459945031878,-0.173999947207133,0.312999296882116));
#1043=CARTESIAN_POINT('',(0.0848499949728296,-0.180739947124424,0.337999460786171));
#1044=CARTESIAN_POINT('',(0.0848499768999127,-0.180739947155016,0.32899946078619));
#1045=CARTESIAN_POINT('',(0.0129999766025488,-0.180739947155016,0.328999605068311));
#1046=CARTESIAN_POINT('',(0.0848499949728296,-0.180739947124424,0.337999460786171));
#1047=CARTESIAN_POINT('',(0.0129999946754668,-0.180739947124424,0.337999605068292));
#1048=CARTESIAN_POINT('',(0.0129999946754668,-0.180739947124424,0.3379996050683));
#1049=CARTESIAN_POINT('',(0.0129999946754668,-0.180049947124424,0.337999605065948));
#1050=CARTESIAN_POINT('',(0.0129999766025488,-0.180049947155016,0.328999605065965));
#1051=CARTESIAN_POINT('',(0.0129999766025488,-0.179359947155016,0.32899960506362));
#1052=CARTESIAN_POINT('',(0.0129999946754669,-0.190054947124426,0.337999605099955));
#1053=CARTESIAN_POINT('',(0.0129999946754668,-0.179359947124424,0.337999605063602));
#1054=CARTESIAN_POINT('',(0.0129999946754668,-0.179359947124424,0.337999605063602));
#1055=CARTESIAN_POINT('',(0.0848499949728296,-0.179359947124424,0.337999460781481));
#1056=CARTESIAN_POINT('',(0.0848499768999127,-0.179359947155016,0.328999460781499));
#1057=CARTESIAN_POINT('',(0.0848499949728296,-0.179359947124424,0.337999460781481));
#1058=CARTESIAN_POINT('',(0.161099995203352,0.0226055128755635,0.337999306977209));
#1059=CARTESIAN_POINT('',(0.161099977130435,0.0226055128449715,0.328999306977227));
#1060=CARTESIAN_POINT('',(0.166459977125761,0.0225635923392287,0.328999296213943));
#1061=CARTESIAN_POINT('',(0.155763310654349,0.0231051036003934,0.328999317692099));
#1062=CARTESIAN_POINT('',(0.166459995198679,0.0225635923698208,0.337999296213925));
#1063=CARTESIAN_POINT('',(0.166459989174373,0.0225635923596235,0.334999296213931));
#1064=CARTESIAN_POINT('',(0.166459983150067,0.0225635923494262,0.331999296213937));
#1065=CARTESIAN_POINT('',(0.166459977125761,0.0225635923392289,0.328999296213943));
#1066=CARTESIAN_POINT('',(0.166459913237124,0.0225635923698205,0.33799929621409));
#1067=CARTESIAN_POINT('',(0.161099995203352,0.0226055128755635,0.337999306977209));
#1068=CARTESIAN_POINT('',(0.155763328727266,0.0231051036309854,0.337999317692081));
#1069=CARTESIAN_POINT('',(0.155763328727266,0.0231051036309854,0.337999317692081));
#1070=CARTESIAN_POINT('',(0.0215832629276765,-0.172449487124426,0.337999587804035));
#1071=CARTESIAN_POINT('',(0.16645999519868,-0.154351327804099,0.337999296815279));
#1072=CARTESIAN_POINT('',(0.167839995198678,-0.172449487124426,0.337999294105616));
#1073=CARTESIAN_POINT('',(0.167839892134666,0.02255279950455,0.337999293442988));
#1074=CARTESIAN_POINT('',(0.161099995203352,0.0226055128755635,0.337999306977209));
#1075=CARTESIAN_POINT('',(0.15438933623902,0.0232337296090614,0.33799932045076));
#1076=CARTESIAN_POINT('',(0.153980517595664,0.0188666977432275,0.337999321286554));
#1077=CARTESIAN_POINT('',(0.153571698952308,0.0144996658773945,0.337999322122348));
#1078=CARTESIAN_POINT('',(0.147099995203323,0.0151055128755735,0.337999335116129));
#1079=CARTESIAN_POINT('',(0.147099995203322,0.00860551287557446,0.337999335138223));
#1080=CARTESIAN_POINT('',(-0.00700000479631298,0.00860551287557845,0.337999644586723));
#1081=CARTESIAN_POINT('',(-0.161100004795948,0.00860551287558245,0.337999954035223));
#1082=CARTESIAN_POINT('',(-0.161100004795948,0.00186551287558242,0.337999954058133));
#1083=CARTESIAN_POINT('',(-0.167840004795935,0.00186551286120046,0.337999967592741));
#1084=CARTESIAN_POINT('',(-0.167840004401425,-0.183014487138799,0.337999968221167));
#1085=CARTESIAN_POINT('',(-0.167840004006914,-0.367894487138798,0.337999968849593));
#1086=CARTESIAN_POINT('',(-0.161100004006928,-0.367894487124416,0.337999955314987));
#1087=CARTESIAN_POINT('',(-0.155805666221318,-0.3637234455984,0.337999944669239));
#1088=CARTESIAN_POINT('',(-0.158880742800552,-0.359820225257486,0.337999950831039));
#1089=CARTESIAN_POINT('',(-0.161955819379786,-0.355917004916571,0.337999956992838));
#1090=CARTESIAN_POINT('',(-0.156850004007908,-0.351894487124419,0.337999946726168));
#1091=CARTESIAN_POINT('',(-0.163350004007895,-0.351894487152226,0.337999959778831));
#1092=CARTESIAN_POINT('',(-0.163350004360096,-0.260764487152229,0.33799995946907));
#1093=CARTESIAN_POINT('',(-0.163350004712296,-0.187239947152232,0.337999959219153));
#1094=CARTESIAN_POINT('',(-0.156850004712309,-0.187239947124425,0.33799994616649));
#1095=CARTESIAN_POINT('',(-0.156850004712309,-0.180739947124425,0.337999946144396));
#1096=CARTESIAN_POINT('',(0.0215832630029935,-0.180739947124424,0.337999587832216));
#1097=CARTESIAN_POINT('',(-0.0130000053244808,-0.180739946820455,0.337999657278941));
#1098=CARTESIAN_POINT('',(-0.0130000053244808,-0.180049946969239,0.337999657276597));
#1099=CARTESIAN_POINT('',(-0.0130000053244808,-0.179359947124424,0.337999657274251));
#1100=CARTESIAN_POINT('',(0.0848499949728296,-0.179359947124424,0.337999460781481));
#1101=CARTESIAN_POINT('',(-0.156850004712309,-0.179359947124424,0.337999946139706));
#1102=CARTESIAN_POINT('',(-0.156850004712309,-0.187239947124425,0.33799994616649));
#1103=CARTESIAN_POINT('',(-0.164729982274259,-0.187221142260335,0.337999961990225));
#1104=CARTESIAN_POINT('',(-0.164730004775567,-0.172449487921483,0.337999961940059));
#1105=CARTESIAN_POINT('',(-0.164729771547021,-0.351833960028978,0.337999962549339));
#1106=CARTESIAN_POINT('',(-0.156850004007908,-0.351894487124418,0.337999946726168));
#1107=CARTESIAN_POINT('',(-0.16303982325874,-0.35677101638629,0.337999959172532));
#1108=CARTESIAN_POINT('',(-0.159964746679506,-0.360674236727205,0.337999953010732));
#1109=CARTESIAN_POINT('',(-0.156889670100271,-0.364577457068119,0.337999946848932));
#1110=CARTESIAN_POINT('',(-0.161100004006928,-0.367894487124416,0.337999955314987));
#1111=CARTESIAN_POINT('',(-0.166460004006916,-0.367894487135853,0.337999966078413));
#1112=CARTESIAN_POINT('',(-0.166460004401427,-0.183014487135854,0.337999965449987));
#1113=CARTESIAN_POINT('',(-0.166460004795938,0.00186551286414546,0.337999964821559));
#1114=CARTESIAN_POINT('',(-0.161100004795948,0.00186551287558242,0.337999954058133));
#1115=CARTESIAN_POINT('',(-0.161100004795948,0.00722551287558243,0.337999954039915));
#1116=CARTESIAN_POINT('',(-0.007000004796313,0.00722551287557843,0.337999644591414));
#1117=CARTESIAN_POINT('',(0.147099995203322,0.00722551287557344,0.337999335142914));
#1118=CARTESIAN_POINT('',(0.147099995203323,0.0151055128755735,0.337999335116129));
#1119=CARTESIAN_POINT('',(0.154945691440554,0.0143710398993185,0.337999319363668));
#1120=CARTESIAN_POINT('',(0.15535451008391,0.0187380717651525,0.337999318527875));
#1121=CARTESIAN_POINT('',(0.0215832448547595,-0.172449487155018,0.328999587804053));
#1122=CARTESIAN_POINT('',(-0.164730022848484,-0.172449487952075,0.328999961940078));
#1123=CARTESIAN_POINT('',(-0.164729789619939,-0.351833960059594,0.328999962549356));
#1124=CARTESIAN_POINT('',(-0.164730000347176,-0.187221142290883,0.328999961990243));
#1125=CARTESIAN_POINT('',(-0.156850022785226,-0.187239947155017,0.328999946166509));
#1126=CARTESIAN_POINT('',(-0.156850022785226,-0.179359947155016,0.328999946139724));
#1127=CARTESIAN_POINT('',(0.0215832448547596,-0.179359947155016,0.328999587827543));
#1128=CARTESIAN_POINT('',(-0.0130000233973987,-0.179359947155016,0.328999657274269));
#1129=CARTESIAN_POINT('',(-0.0130000233973987,-0.180049946999831,0.328999657276615));
#1130=CARTESIAN_POINT('',(-0.0130000233973987,-0.180739947155016,0.32899965727896));
#1131=CARTESIAN_POINT('',(0.0215832448547596,-0.180739947155016,0.328999587832233));
#1132=CARTESIAN_POINT('',(-0.156850022785226,-0.180739947155016,0.328999946144414));
#1133=CARTESIAN_POINT('',(-0.156850022785226,-0.187239947155017,0.328999946166509));
#1134=CARTESIAN_POINT('',(-0.163350022609114,-0.187239947155017,0.328999959219171));
#1135=CARTESIAN_POINT('',(-0.163350022433014,-0.172449487155018,0.328999959168896));
#1136=CARTESIAN_POINT('',(-0.163350022256912,-0.351894487155011,0.328999959778849));
#1137=CARTESIAN_POINT('',(-0.156850022080825,-0.351894487155011,0.328999946726186));
#1138=CARTESIAN_POINT('',(-0.161955837452703,-0.355917004947163,0.328999956992857));
#1139=CARTESIAN_POINT('',(-0.158880760873469,-0.359820225288078,0.328999950831057));
#1140=CARTESIAN_POINT('',(-0.155805684294235,-0.363723445628993,0.328999944669257));
#1141=CARTESIAN_POINT('',(-0.161100022079845,-0.367894487155008,0.328999955315005));
#1142=CARTESIAN_POINT('',(-0.167840022277086,-0.367894487155008,0.328999968849612));
#1143=CARTESIAN_POINT('',(-0.167840022474343,-0.183014487169391,0.328999968221185));
#1144=CARTESIAN_POINT('',(-0.167840022671598,0.00186551284499044,0.328999967592758));
#1145=CARTESIAN_POINT('',(-0.161100022868865,0.00186551284499044,0.328999954058152));
#1146=CARTESIAN_POINT('',(-0.161100022868865,0.00860551284499046,0.328999954035242));
#1147=CARTESIAN_POINT('',(-0.00700002286922993,0.00860551284498647,0.328999644586741));
#1148=CARTESIAN_POINT('',(0.147099977130405,0.00860551284498247,0.328999335138241));
#1149=CARTESIAN_POINT('',(0.147099977130406,0.0151055128449814,0.328999335116147));
#1150=CARTESIAN_POINT('',(0.153571680879391,0.0144996658468025,0.328999322122365));
#1151=CARTESIAN_POINT('',(0.153980499522747,0.0188666977126355,0.328999321286572));
#1152=CARTESIAN_POINT('',(0.154389318166103,0.0232337295784695,0.328999320450779));
#1153=CARTESIAN_POINT('',(0.161099977130435,0.0226055128449715,0.328999306977227));
#1154=CARTESIAN_POINT('',(0.167839770991504,0.0225527993731985,0.328999293443214));
#1155=CARTESIAN_POINT('',(0.16783997712576,-0.172449487155018,0.328999294105634));
#1156=CARTESIAN_POINT('',(0.166459977125762,-0.172449487155018,0.328999296876815));
#1157=CARTESIAN_POINT('',(0.155354492010994,0.0187380717345605,0.328999318527892));
#1158=CARTESIAN_POINT('',(0.154945673367637,0.0143710398687265,0.328999319363686));
#1159=CARTESIAN_POINT('',(0.147099977130406,0.0151055128449814,0.328999335116147));
#1160=CARTESIAN_POINT('',(0.147099977130405,0.00722551284498145,0.328999335142932));
#1161=CARTESIAN_POINT('',(-0.00700002286922995,0.00722551284498644,0.328999644591432));
#1162=CARTESIAN_POINT('',(-0.161100022868865,0.00722551284499044,0.328999954039932));
#1163=CARTESIAN_POINT('',(-0.161100022868865,0.00186551284499044,0.328999954058152));
#1164=CARTESIAN_POINT('',(-0.166460022671601,0.00186551284499044,0.328999964821577));
#1165=CARTESIAN_POINT('',(-0.166460022474345,-0.183014487166446,0.328999965450004));
#1166=CARTESIAN_POINT('',(-0.16646002227709,-0.367894487155008,0.328999966078431));
#1167=CARTESIAN_POINT('',(-0.161100022079845,-0.367894487155008,0.328999955315005));
#1168=CARTESIAN_POINT('',(-0.156889688173189,-0.36457745709871,0.328999946848951));
#1169=CARTESIAN_POINT('',(-0.159964764752423,-0.360674236757796,0.32899995301075));
#1170=CARTESIAN_POINT('',(-0.163039841331656,-0.356771016416882,0.32899995917255));
#1171=CARTESIAN_POINT('',(-0.156850022080825,-0.35189448715501,0.328999946726186));
#1172=CARTESIAN_POINT('',(0.15535451008391,0.0187380717651525,0.337999318527875));
#1173=CARTESIAN_POINT('',(0.154945691440554,0.0143710398993185,0.337999319363668));
#1174=CARTESIAN_POINT('',(0.147099995203323,0.0151055128755735,0.337999335116129));
#1175=CARTESIAN_POINT('',(0.147099995203322,0.00722551287557344,0.337999335142914));
#1176=CARTESIAN_POINT('',(-0.007000004796313,0.00722551287557843,0.337999644591414));
#1177=CARTESIAN_POINT('',(-0.161100004795948,0.00722551287558243,0.337999954039915));
#1178=CARTESIAN_POINT('',(-0.161100004795948,0.00186551287558242,0.337999954058133));
#1179=CARTESIAN_POINT('',(-0.166460004598684,0.00186551287558242,0.33799996482156));
#1180=CARTESIAN_POINT('',(-0.166460004401427,-0.183014487135854,0.337999965449987));
#1181=CARTESIAN_POINT('',(-0.166460004204173,-0.367894487124416,0.337999966078414));
#1182=CARTESIAN_POINT('',(-0.161100004006928,-0.367894487124416,0.337999955314987));
#1183=CARTESIAN_POINT('',(-0.156889670100271,-0.364577457068119,0.337999946848932));
#1184=CARTESIAN_POINT('',(-0.159964746679506,-0.360674236727205,0.337999953010732));
#1185=CARTESIAN_POINT('',(-0.16303982325874,-0.35677101638629,0.337999959172532));
#1186=CARTESIAN_POINT('',(-0.156850004007908,-0.351894487124418,0.337999946726168));
#1187=CARTESIAN_POINT('',(-0.164730022081068,-0.351833960059595,0.328999962549823));
#1188=CARTESIAN_POINT('',(-0.164730016056762,-0.351833960049398,0.331999962549817));
#1189=CARTESIAN_POINT('',(-0.164730010032456,-0.351833960039201,0.334999962549811));
#1190=CARTESIAN_POINT('',(-0.164730004008151,-0.351833960029003,0.337999962549805));
#1191=CARTESIAN_POINT('',(0.0848499949728296,-0.179359947124424,0.337999460781481));
#1192=CARTESIAN_POINT('',(-0.15685001676092,-0.17935994714482,0.331999946139718));
#1193=CARTESIAN_POINT('',(-0.0130000053244808,-0.179359947124424,0.337999657274262));
#1194=CARTESIAN_POINT('',(-0.0130000053244808,-0.180049946969239,0.337999657276597));
#1195=CARTESIAN_POINT('',(-0.0130000053244808,-0.180739947124424,0.337999657278941));
#1196=CARTESIAN_POINT('',(0.0848499949728296,-0.180739947124424,0.337999460786171));
#1197=CARTESIAN_POINT('',(-0.156850054914856,-0.180739947209403,0.312999946144447));
#1198=CARTESIAN_POINT('',(-0.156850054914856,-0.187239947209403,0.312999946166541));
#1199=CARTESIAN_POINT('',(-0.163350054738744,-0.187239947209403,0.312999959219203));
#1200=CARTESIAN_POINT('',(-0.163350054562645,-0.260764487237207,0.312999959469121));
#1201=CARTESIAN_POINT('',(-0.163350004183995,-0.351894487124419,0.337999959778832));
#1202=CARTESIAN_POINT('',(-0.156850004007908,-0.351894487124419,0.337999946726168));
#1203=CARTESIAN_POINT('',(-0.161955819379786,-0.355917004916571,0.337999956992838));
#1204=CARTESIAN_POINT('',(-0.158880742800552,-0.359820225257486,0.337999950831039));
#1205=CARTESIAN_POINT('',(-0.155805666221318,-0.3637234455984,0.337999944669239));
#1206=CARTESIAN_POINT('',(-0.161100004006928,-0.367894487124416,0.337999955314987));
#1207=CARTESIAN_POINT('',(-0.16784000420417,-0.367894487124416,0.337999968849594));
#1208=CARTESIAN_POINT('',(-0.167840004401425,-0.183014487138799,0.337999968221167));
#1209=CARTESIAN_POINT('',(-0.167840004598681,0.00186551287558242,0.337999967592741));
#1210=CARTESIAN_POINT('',(-0.161100004795948,0.00186551287558242,0.337999954058133));
#1211=CARTESIAN_POINT('',(-0.161100004795948,0.00860551287558245,0.337999954035223));
#1212=CARTESIAN_POINT('',(-0.00700000479631298,0.00860551287557845,0.337999644586723));
#1213=CARTESIAN_POINT('',(0.147099995203322,0.00860551287557446,0.337999335138223));
#1214=CARTESIAN_POINT('',(0.147099995203323,0.0151055128755735,0.337999335116129));
#1215=CARTESIAN_POINT('',(0.153571698952308,0.0144996658773945,0.337999322122348));
#1216=CARTESIAN_POINT('',(0.153980517595664,0.0188666977432275,0.337999321286554));
#1217=CARTESIAN_POINT('',(0.15438933623902,0.0232337296090614,0.33799932045076));
#1218=CARTESIAN_POINT('',(0.161099995203352,0.0226055128755635,0.337999306977209));
#1219=CARTESIAN_POINT('',(0.167839977125758,0.0225527993731985,0.3289992934428));
#1220=CARTESIAN_POINT('',(0.167839983150064,0.0225527993833958,0.331999293442794));
#1221=CARTESIAN_POINT('',(0.16783998917437,0.0225527993935931,0.334999293442788));
#1222=CARTESIAN_POINT('',(0.167839995198676,0.0225527994037904,0.337999293442782));
#1223=CARTESIAN_POINT('',(0.167839983150065,-0.0668944871440105,0.331999293746835));
#1224=CARTESIAN_POINT('',(0.16645994499613,-0.154351327889077,0.312999296815329));
#1225=CARTESIAN_POINT('',(-0.164730016446492,-0.260734228640848,0.33199996224016));
#1226=CARTESIAN_POINT('',(-0.164730004712373,-0.187221142260291,0.33799996199027));
#1227=CARTESIAN_POINT('',(-0.164730010736679,-0.187221142270488,0.334999961990276));
#1228=CARTESIAN_POINT('',(-0.164730016760984,-0.187221142280685,0.331999961990282));
#1229=CARTESIAN_POINT('',(-0.16473002278529,-0.187221142290883,0.328999961990288));
#1230=CARTESIAN_POINT('',(-0.15685001676092,-0.18723994714482,0.331999946166503));
#1231=MECHANICAL_DESIGN_GEOMETRIC_PRESENTATION_REPRESENTATION('',(#675,
#36,#37,#38,#39,#40,#41,#42,#43,#44,#45,#46,#47,#48,#49),#1232);
#1232=(
GEOMETRIC_REPRESENTATION_CONTEXT(3)
GLOBAL_UNCERTAINTY_ASSIGNED_CONTEXT((#1233))
GLOBAL_UNIT_ASSIGNED_CONTEXT((#1236,#1235,#1234))
REPRESENTATION_CONTEXT('9mm_AWD_Bottom_Belt','TOP_LEVEL_ASSEMBLY_PART')
);
#1233=UNCERTAINTY_MEASURE_WITH_UNIT(LENGTH_MEASURE(2.E-5),#1236,
'DISTANCE_ACCURACY_VALUE','Maximum Tolerance applied to model');
#1234=(
NAMED_UNIT(*)
SI_UNIT($,.STERADIAN.)
SOLID_ANGLE_UNIT()
);
#1235=(
NAMED_UNIT(*)
PLANE_ANGLE_UNIT()
SI_UNIT($,.RADIAN.)
);
#1236=(
LENGTH_UNIT()
NAMED_UNIT(*)
SI_UNIT($,.METRE.)
);
#1237=PRODUCT_DEFINITION_SHAPE('','',#1238);
#1238=PRODUCT_DEFINITION('','',#1240,#1239);
#1239=PRODUCT_DEFINITION_CONTEXT('',#1246,'design');
#1240=PRODUCT_DEFINITION_FORMATION_WITH_SPECIFIED_SOURCE('','',#1242,
 .NOT_KNOWN.);
#1241=PRODUCT_RELATED_PRODUCT_CATEGORY('','',(#1242));
#1242=PRODUCT('9mm_AWD_Bottom_Belt','9mm_AWD_Bottom_Belt',
'9mm_AWD_Bottom_Belt',(#1244));
#1243=PRODUCT_CATEGORY('','');
#1244=PRODUCT_CONTEXT('',#1246,'mechanical');
#1245=APPLICATION_PROTOCOL_DEFINITION('international standard',
'ap242_managed_model_based_3d_engineering',2011,#1246);
#1246=APPLICATION_CONTEXT('managed model based 3d engineering');
ENDSEC;
END-ISO-10303-21;
